<svg xmlns="http://www.w3.org/2000/svg" width="1280" height="480" viewBox="0 0 1280 480" role="img" aria-label="Panorama360">
  <defs>
    <linearGradient id="bg" x1="0%" y1="0%" x2="100%" y2="100%">
      <stop offset="0%" stop-color="#0B1220"/>
      <stop offset="55%" stop-color="#12263A"/>
      <stop offset="100%" stop-color="#0E3A3A"/>
    </linearGradient>
    <linearGradient id="ring" x1="0%" y1="0%" x2="100%" y2="0%">
      <stop offset="0%" stop-color="#5EEAD4"/>
      <stop offset="100%" stop-color="#38BDF8"/>
    </linearGradient>
    <radialGradient id="glow" cx="50%" cy="48%" r="42%">
      <stop offset="0%" stop-color="#5EEAD4" stop-opacity="0.28"/>
      <stop offset="70%" stop-color="#38BDF8" stop-opacity="0.08"/>
      <stop offset="100%" stop-color="#000" stop-opacity="0"/>
    </radialGradient>
  </defs>
  <rect width="1280" height="480" fill="url(#bg)"/>
  <circle cx="640" cy="230" r="210" fill="url(#glow)"/>
  <circle cx="640" cy="230" r="148" fill="none" stroke="url(#ring)" stroke-width="2.5" opacity="0.9"/>
  <circle cx="640" cy="230" r="108" fill="none" stroke="#94A3B8" stroke-width="1" opacity="0.35" stroke-dasharray="4 8"/>
  <ellipse cx="640" cy="230" rx="148" ry="42" fill="none" stroke="#5EEAD4" stroke-width="1.5" opacity="0.55"/>
  <ellipse cx="640" cy="230" rx="42" ry="148" fill="none" stroke="#38BDF8" stroke-width="1.5" opacity="0.45"/>
  <!-- capture points -->
  <circle cx="640" cy="82" r="7" fill="#5EEAD4"/>
  <circle cx="788" cy="230" r="7" fill="#38BDF8"/>
  <circle cx="640" cy="378" r="7" fill="#FBBF24"/>
  <circle cx="492" cy="230" r="7" fill="#34D399"/>
  <circle cx="745" cy="125" r="5" fill="#94A3B8"/>
  <circle cx="745" cy="335" r="5" fill="#94A3B8"/>
  <circle cx="535" cy="125" r="5" fill="#94A3B8"/>
  <circle cx="535" cy="335" r="5" fill="#94A3B8"/>
  <circle cx="640" cy="230" r="10" fill="none" stroke="#F8FAFC" stroke-width="2"/>
  <circle cx="640" cy="230" r="3" fill="#F8FAFC"/>
  <text x="640" y="430" text-anchor="middle" font-family="Segoe UI, Helvetica Neue, Arial, sans-serif" font-size="42" font-weight="700" fill="#F8FAFC" letter-spacing="1">Panorama360</text>
  <text x="640" y="462" text-anchor="middle" font-family="Segoe UI, Helvetica Neue, Arial, sans-serif" font-size="18" fill="#94A3B8">Guided 360° capture · Metal stitch · Interactive viewer</text>
</svg>
